<?xml version="1.0" encoding="UTF-8" standalone="no"?>
<!DOCTYPE svg PUBLIC "-//W3C//DTD SVG 1.1//EN"
 "http://www.w3.org/Graphics/SVG/1.1/DTD/svg11.dtd">
<!-- Generated by graphviz version 5.0.0 (20220707.1540)
 -->
<!-- Title: dependencies Pages: 1 -->
<svg width="669pt" height="247pt"
 viewBox="0.00 0.00 669.00 246.80" xmlns="http://www.w3.org/2000/svg" xmlns:xlink="http://www.w3.org/1999/xlink">
<g id="graph0" class="graph" transform="scale(1 1) rotate(0) translate(4 242.8)">
<title>dependencies</title>
<polygon fill="white" stroke="transparent" points="-4,4 -4,-242.8 665,-242.8 665,4 -4,4"/>
<text text-anchor="middle" x="330.5" y="-8.2" font-family="sans-serif" font-size="14.00">dependencies</text>
<g id="clust1" class="cluster">
<title>cluster_SharedModule</title>
<polygon fill="none" stroke="black" stroke-dasharray="1,5" points="8,-32.8 8,-230.8 653,-230.8 653,-32.8 8,-32.8"/>
</g>
<g id="clust7" class="cluster">
<title>cluster_SharedModule_exports</title>
<polygon fill="none" stroke="black" points="16,-170.8 16,-222.8 645,-222.8 645,-170.8 16,-170.8"/>
</g>
<g id="clust2" class="cluster">
<title>cluster_SharedModule_declarations</title>
<polygon fill="none" stroke="black" points="161,-40.8 161,-92.8 529,-92.8 529,-40.8 161,-40.8"/>
</g>
<!-- BtnComponent -->
<g id="node1" class="node">
<title>BtnComponent</title>
<polygon fill="#ffffb3" stroke="black" points="520.56,-84.8 419.44,-84.8 419.44,-48.8 520.56,-48.8 520.56,-84.8"/>
<text text-anchor="middle" x="470" y="-62.6" font-family="Times,serif" font-size="14.00">BtnComponent</text>
</g>
<!-- SharedModule -->
<g id="node4" class="node">
<title>SharedModule</title>
<polygon fill="#8dd3c7" stroke="black" points="378.43,-149.8 375.43,-153.8 354.43,-153.8 351.43,-149.8 279.57,-149.8 279.57,-113.8 378.43,-113.8 378.43,-149.8"/>
<text text-anchor="middle" x="329" y="-127.6" font-family="Times,serif" font-size="14.00">SharedModule</text>
</g>
<!-- BtnComponent&#45;&gt;SharedModule -->
<g id="edge1" class="edge">
<title>BtnComponent&#45;&gt;SharedModule</title>
<path fill="none" stroke="black" d="M451.44,-84.83C451.44,-101.2 451.44,-122.8 451.44,-122.8 451.44,-122.8 388.45,-122.8 388.45,-122.8"/>
<polygon fill="black" stroke="black" points="388.45,-119.3 378.45,-122.8 388.45,-126.3 388.45,-119.3"/>
</g>
<!-- TableLightComponent -->
<g id="node2" class="node">
<title>TableLightComponent</title>
<polygon fill="#ffffb3" stroke="black" points="400.53,-84.8 257.47,-84.8 257.47,-48.8 400.53,-48.8 400.53,-84.8"/>
<text text-anchor="middle" x="329" y="-62.6" font-family="Times,serif" font-size="14.00">TableLightComponent</text>
</g>
<!-- TableLightComponent&#45;&gt;SharedModule -->
<g id="edge2" class="edge">
<title>TableLightComponent&#45;&gt;SharedModule</title>
<path fill="none" stroke="black" d="M329,-84.91C329,-84.91 329,-103.79 329,-103.79"/>
<polygon fill="black" stroke="black" points="325.5,-103.79 329,-113.79 332.5,-103.79 325.5,-103.79"/>
</g>
<!-- TotalPipe -->
<g id="node3" class="node">
<title>TotalPipe</title>
<polygon fill="#ffffb3" stroke="black" points="239.44,-84.8 168.56,-84.8 168.56,-48.8 239.44,-48.8 239.44,-84.8"/>
<text text-anchor="middle" x="204" y="-62.6" font-family="Times,serif" font-size="14.00">TotalPipe</text>
</g>
<!-- TotalPipe&#45;&gt;SharedModule -->
<g id="edge3" class="edge">
<title>TotalPipe&#45;&gt;SharedModule</title>
<path fill="none" stroke="black" d="M214.72,-84.83C214.72,-101.2 214.72,-122.8 214.72,-122.8 214.72,-122.8 269.54,-122.8 269.54,-122.8"/>
<polygon fill="black" stroke="black" points="269.54,-126.3 279.54,-122.8 269.54,-119.3 269.54,-126.3"/>
</g>
<!-- BtnComponent  -->
<g id="node5" class="node">
<title>BtnComponent </title>
<polygon fill="#fb8072" stroke="black" points="636.56,-214.8 531.44,-214.8 531.44,-178.8 636.56,-178.8 636.56,-214.8"/>
<text text-anchor="middle" x="584" y="-192.6" font-family="Times,serif" font-size="14.00">BtnComponent </text>
</g>
<!-- SharedModule&#45;&gt;BtnComponent  -->
<g id="edge4" class="edge">
<title>SharedModule&#45;&gt;BtnComponent </title>
<path fill="none" stroke="black" stroke-dasharray="5,2" d="M378.47,-131.8C452.62,-131.8 584,-131.8 584,-131.8 584,-131.8 584,-168.69 584,-168.69"/>
<polygon fill="black" stroke="black" points="580.5,-168.69 584,-178.69 587.5,-168.69 580.5,-168.69"/>
</g>
<!-- IconsModule  -->
<g id="node6" class="node">
<title>IconsModule </title>
<polygon fill="#fb8072" stroke="black" points="513.88,-214.8 420.12,-214.8 420.12,-178.8 513.88,-178.8 513.88,-214.8"/>
<text text-anchor="middle" x="467" y="-192.6" font-family="Times,serif" font-size="14.00">IconsModule </text>
</g>
<!-- SharedModule&#45;&gt;IconsModule  -->
<g id="edge5" class="edge">
<title>SharedModule&#45;&gt;IconsModule </title>
<path fill="none" stroke="black" stroke-dasharray="5,2" d="M378.43,-140.8C423.32,-140.8 482.56,-140.8 482.56,-140.8 482.56,-140.8 482.56,-168.77 482.56,-168.77"/>
<polygon fill="black" stroke="black" points="479.06,-168.77 482.56,-178.77 486.06,-168.77 479.06,-168.77"/>
</g>
<!-- TableLightComponent  -->
<g id="node7" class="node">
<title>TableLightComponent </title>
<polygon fill="#fb8072" stroke="black" points="402.53,-214.8 255.47,-214.8 255.47,-178.8 402.53,-178.8 402.53,-214.8"/>
<text text-anchor="middle" x="329" y="-192.6" font-family="Times,serif" font-size="14.00">TableLightComponent </text>
</g>
<!-- SharedModule&#45;&gt;TableLightComponent  -->
<g id="edge6" class="edge">
<title>SharedModule&#45;&gt;TableLightComponent </title>
<path fill="none" stroke="black" stroke-dasharray="5,2" d="M329,-149.91C329,-149.91 329,-168.79 329,-168.79"/>
<polygon fill="black" stroke="black" points="325.5,-168.79 329,-178.79 332.5,-168.79 325.5,-168.79"/>
</g>
<!-- TemplatesModule  -->
<g id="node8" class="node">
<title>TemplatesModule </title>
<polygon fill="#fb8072" stroke="black" points="237.86,-214.8 116.14,-214.8 116.14,-178.8 237.86,-178.8 237.86,-214.8"/>
<text text-anchor="middle" x="177" y="-192.6" font-family="Times,serif" font-size="14.00">TemplatesModule </text>
</g>
<!-- SharedModule&#45;&gt;TemplatesModule  -->
<g id="edge7" class="edge">
<title>SharedModule&#45;&gt;TemplatesModule </title>
<path fill="none" stroke="black" stroke-dasharray="5,2" d="M279.45,-140.8C240.14,-140.8 191.75,-140.8 191.75,-140.8 191.75,-140.8 191.75,-168.77 191.75,-168.77"/>
<polygon fill="black" stroke="black" points="188.25,-168.77 191.75,-178.77 195.25,-168.77 188.25,-168.77"/>
</g>
<!-- TotalPipe  -->
<g id="node9" class="node">
<title>TotalPipe </title>
<polygon fill="#fb8072" stroke="black" points="97.93,-214.8 24.07,-214.8 24.07,-178.8 97.93,-178.8 97.93,-214.8"/>
<text text-anchor="middle" x="61" y="-192.6" font-family="Times,serif" font-size="14.00">TotalPipe </text>
</g>
<!-- SharedModule&#45;&gt;TotalPipe  -->
<g id="edge8" class="edge">
<title>SharedModule&#45;&gt;TotalPipe </title>
<path fill="none" stroke="black" stroke-dasharray="5,2" d="M279.53,-131.8C202.1,-131.8 61,-131.8 61,-131.8 61,-131.8 61,-168.69 61,-168.69"/>
<polygon fill="black" stroke="black" points="57.5,-168.69 61,-178.69 64.5,-168.69 57.5,-168.69"/>
</g>
</g>
</svg>
