<?xml version="1.0" encoding="UTF-8" standalone="no"?>
<!DOCTYPE svg PUBLIC "-//W3C//DTD SVG 1.1//EN"
 "http://www.w3.org/Graphics/SVG/1.1/DTD/svg11.dtd">
<!-- Generated by graphviz version 5.0.0 (20220707.1540)
 -->
<!-- Title: dependencies Pages: 1 -->
<svg width="701pt" height="247pt"
 viewBox="0.00 0.00 701.00 246.80" xmlns="http://www.w3.org/2000/svg" xmlns:xlink="http://www.w3.org/1999/xlink">
<g id="graph0" class="graph" transform="scale(1 1) rotate(0) translate(4 242.8)">
<title>dependencies</title>
<polygon fill="white" stroke="transparent" points="-4,4 -4,-242.8 697,-242.8 697,4 -4,4"/>
<text text-anchor="middle" x="346.5" y="-8.2" font-family="sans-serif" font-size="14.00">dependencies</text>
<g id="clust1" class="cluster">
<title>cluster_AppModule</title>
<polygon fill="none" stroke="black" stroke-dasharray="1,5" points="8,-32.8 8,-230.8 685,-230.8 685,-32.8 8,-32.8"/>
</g>
<g id="clust8" class="cluster">
<title>cluster_AppModule_bootstrap</title>
<polygon fill="none" stroke="black" points="297,-170.8 297,-222.8 421,-222.8 421,-170.8 297,-170.8"/>
</g>
<g id="clust6" class="cluster">
<title>cluster_AppModule_imports</title>
<polygon fill="none" stroke="black" points="428,-40.8 428,-92.8 677,-92.8 677,-40.8 428,-40.8"/>
</g>
<g id="clust2" class="cluster">
<title>cluster_AppModule_declarations</title>
<polygon fill="none" stroke="black" points="16,-40.8 16,-92.8 420,-92.8 420,-40.8 16,-40.8"/>
</g>
<!-- AppComponent -->
<g id="node1" class="node">
<title>AppComponent</title>
<polygon fill="#ffffb3" stroke="black" points="411.94,-84.8 306.06,-84.8 306.06,-48.8 411.94,-48.8 411.94,-84.8"/>
<text text-anchor="middle" x="359" y="-62.6" font-family="Times,serif" font-size="14.00">AppComponent</text>
</g>
<!-- AppModule -->
<g id="node4" class="node">
<title>AppModule</title>
<polygon fill="#8dd3c7" stroke="black" points="400.66,-149.8 397.66,-153.8 376.66,-153.8 373.66,-149.8 317.34,-149.8 317.34,-113.8 400.66,-113.8 400.66,-149.8"/>
<text text-anchor="middle" x="359" y="-127.6" font-family="Times,serif" font-size="14.00">AppModule</text>
</g>
<!-- AppComponent&#45;&gt;AppModule -->
<g id="edge1" class="edge">
<title>AppComponent&#45;&gt;AppModule</title>
<path fill="none" stroke="black" d="M359,-84.91C359,-84.91 359,-103.79 359,-103.79"/>
<polygon fill="black" stroke="black" points="355.5,-103.79 359,-113.79 362.5,-103.79 355.5,-103.79"/>
</g>
<!-- FootercrmComponent -->
<g id="node2" class="node">
<title>FootercrmComponent</title>
<polygon fill="#ffffb3" stroke="black" points="287.65,-84.8 148.35,-84.8 148.35,-48.8 287.65,-48.8 287.65,-84.8"/>
<text text-anchor="middle" x="218" y="-62.6" font-family="Times,serif" font-size="14.00">FootercrmComponent</text>
</g>
<!-- FootercrmComponent&#45;&gt;AppModule -->
<g id="edge2" class="edge">
<title>FootercrmComponent&#45;&gt;AppModule</title>
<path fill="none" stroke="black" d="M218,-84.82C218,-102.17 218,-125.8 218,-125.8 218,-125.8 307.08,-125.8 307.08,-125.8"/>
<polygon fill="black" stroke="black" points="307.08,-129.3 317.08,-125.8 307.08,-122.3 307.08,-129.3"/>
</g>
<!-- TestComponent -->
<g id="node3" class="node">
<title>TestComponent</title>
<polygon fill="#ffffb3" stroke="black" points="129.94,-84.8 24.06,-84.8 24.06,-48.8 129.94,-48.8 129.94,-84.8"/>
<text text-anchor="middle" x="77" y="-62.6" font-family="Times,serif" font-size="14.00">TestComponent</text>
</g>
<!-- TestComponent&#45;&gt;AppModule -->
<g id="edge3" class="edge">
<title>TestComponent&#45;&gt;AppModule</title>
<path fill="none" stroke="black" d="M77,-85.08C77,-106.12 77,-137.8 77,-137.8 77,-137.8 307.09,-137.8 307.09,-137.8"/>
<polygon fill="black" stroke="black" points="307.09,-141.3 317.09,-137.8 307.09,-134.3 307.09,-141.3"/>
</g>
<!-- AppComponent  -->
<g id="node7" class="node">
<title>AppComponent </title>
<polygon fill="#80b1d3" stroke="black" points="413.44,-214.8 304.56,-214.8 304.56,-178.8 413.44,-178.8 413.44,-214.8"/>
<text text-anchor="middle" x="359" y="-192.6" font-family="Times,serif" font-size="14.00">AppComponent </text>
</g>
<!-- AppModule&#45;&gt;AppComponent  -->
<g id="edge6" class="edge">
<title>AppModule&#45;&gt;AppComponent </title>
<path fill="none" stroke="black" stroke-dasharray="1,5" d="M359,-149.91C359,-149.91 359,-168.79 359,-168.79"/>
<polygon fill="black" stroke="black" points="355.5,-168.79 359,-178.79 362.5,-168.79 355.5,-168.79"/>
</g>
<!-- AppRoutingModule -->
<g id="node5" class="node">
<title>AppRoutingModule</title>
<polygon fill="#8dd3c7" stroke="black" points="669.28,-84.8 666.28,-88.8 645.28,-88.8 642.28,-84.8 540.72,-84.8 540.72,-48.8 669.28,-48.8 669.28,-84.8"/>
<text text-anchor="middle" x="605" y="-62.6" font-family="Times,serif" font-size="14.00">AppRoutingModule</text>
</g>
<!-- AppRoutingModule&#45;&gt;AppModule -->
<g id="edge4" class="edge">
<title>AppRoutingModule&#45;&gt;AppModule</title>
<path fill="none" stroke="black" d="M605,-85.08C605,-106.12 605,-137.8 605,-137.8 605,-137.8 410.73,-137.8 410.73,-137.8"/>
<polygon fill="black" stroke="black" points="410.73,-134.3 400.73,-137.8 410.73,-141.3 410.73,-134.3"/>
</g>
<!-- CoreModule -->
<g id="node6" class="node">
<title>CoreModule</title>
<polygon fill="#8dd3c7" stroke="black" points="522.27,-84.8 519.27,-88.8 498.27,-88.8 495.27,-84.8 435.73,-84.8 435.73,-48.8 522.27,-48.8 522.27,-84.8"/>
<text text-anchor="middle" x="479" y="-62.6" font-family="Times,serif" font-size="14.00">CoreModule</text>
</g>
<!-- CoreModule&#45;&gt;AppModule -->
<g id="edge5" class="edge">
<title>CoreModule&#45;&gt;AppModule</title>
<path fill="none" stroke="black" d="M479,-84.82C479,-102.17 479,-125.8 479,-125.8 479,-125.8 410.97,-125.8 410.97,-125.8"/>
<polygon fill="black" stroke="black" points="410.97,-122.3 400.97,-125.8 410.97,-129.3 410.97,-122.3"/>
</g>
</g>
</svg>
