<?xml version="1.0" encoding="UTF-8" standalone="no"?>
<!DOCTYPE svg PUBLIC "-//W3C//DTD SVG 1.1//EN"
 "http://www.w3.org/Graphics/SVG/1.1/DTD/svg11.dtd">
<!-- Generated by graphviz version 5.0.0 (20220707.1540)
 -->
<!-- Title: dependencies Pages: 1 -->
<svg width="6860pt" height="253pt"
 viewBox="0.00 0.00 6860.00 252.80" xmlns="http://www.w3.org/2000/svg" xmlns:xlink="http://www.w3.org/1999/xlink">
<g id="graph0" class="graph" transform="scale(1 1) rotate(0) translate(4 248.8)">
<title>dependencies</title>
<polygon fill="white" stroke="transparent" points="-4,4 -4,-248.8 6856,-248.8 6856,4 -4,4"/>
<text text-anchor="middle" x="3426" y="-8.2" font-family="sans-serif" font-size="14.00">dependencies</text>
<g id="clust1" class="cluster">
<title>cluster_AppModule</title>
<polygon fill="none" stroke="black" stroke-dasharray="1,5" points="8,-32.8 8,-236.8 684,-236.8 684,-32.8 8,-32.8"/>
</g>
<g id="clust2" class="cluster">
<title>cluster_AppModule_declarations</title>
<polygon fill="none" stroke="black" points="16,-40.8 16,-92.8 419,-92.8 419,-40.8 16,-40.8"/>
</g>
<g id="clust6" class="cluster">
<title>cluster_AppModule_imports</title>
<polygon fill="none" stroke="black" points="427,-40.8 427,-92.8 676,-92.8 676,-40.8 427,-40.8"/>
</g>
<g id="clust8" class="cluster">
<title>cluster_AppModule_bootstrap</title>
<polygon fill="none" stroke="black" points="279,-176.8 279,-228.8 403,-228.8 403,-176.8 279,-176.8"/>
</g>
<g id="clust16" class="cluster">
<title>cluster_ClientsModule</title>
<polygon fill="none" stroke="black" stroke-dasharray="1,5" points="3508,-32.8 3508,-160.8 4246,-160.8 4246,-32.8 3508,-32.8"/>
</g>
<g id="clust17" class="cluster">
<title>cluster_ClientsModule_declarations</title>
<polygon fill="none" stroke="black" points="3684,-40.8 3684,-92.8 4238,-92.8 4238,-40.8 3684,-40.8"/>
</g>
<g id="clust21" class="cluster">
<title>cluster_ClientsModule_imports</title>
<polygon fill="none" stroke="black" points="3516,-40.8 3516,-92.8 3676,-92.8 3676,-40.8 3516,-40.8"/>
</g>
<g id="clust31" class="cluster">
<title>cluster_CoreModule</title>
<polygon fill="none" stroke="black" stroke-dasharray="1,5" points="692,-100.8 692,-168.8 1865,-168.8 1865,-100.8 692,-100.8"/>
</g>
<g id="clust32" class="cluster">
<title>cluster_CoreModule_declarations</title>
<polygon fill="none" stroke="black" points="700,-108.8 700,-160.8 1096,-160.8 1096,-108.8 700,-108.8"/>
</g>
<g id="clust37" class="cluster">
<title>cluster_CoreModule_exports</title>
<polygon fill="none" stroke="black" points="1104,-108.8 1104,-160.8 1857,-160.8 1857,-108.8 1104,-108.8"/>
</g>
<g id="clust40" class="cluster">
<title>cluster_IconsModule</title>
<polygon fill="none" stroke="black" stroke-dasharray="1,5" points="4254,-32.8 4254,-236.8 4895,-236.8 4895,-32.8 4254,-32.8"/>
</g>
<g id="clust41" class="cluster">
<title>cluster_IconsModule_declarations</title>
<polygon fill="none" stroke="black" points="4271,-40.8 4271,-92.8 4881,-92.8 4881,-40.8 4271,-40.8"/>
</g>
<g id="clust47" class="cluster">
<title>cluster_IconsModule_exports</title>
<polygon fill="none" stroke="black" points="4262,-176.8 4262,-228.8 4887,-228.8 4887,-176.8 4262,-176.8"/>
</g>
<g id="clust50" class="cluster">
<title>cluster_LoginModule</title>
<polygon fill="none" stroke="black" stroke-dasharray="1,5" points="4903,-32.8 4903,-160.8 5842,-160.8 5842,-32.8 4903,-32.8"/>
</g>
<g id="clust51" class="cluster">
<title>cluster_LoginModule_declarations</title>
<polygon fill="none" stroke="black" points="5073,-40.8 5073,-92.8 5834,-92.8 5834,-40.8 5073,-40.8"/>
</g>
<g id="clust56" class="cluster">
<title>cluster_LoginModule_imports</title>
<polygon fill="none" stroke="black" points="4911,-40.8 4911,-92.8 5065,-92.8 5065,-40.8 4911,-40.8"/>
</g>
<g id="clust66" class="cluster">
<title>cluster_OrdersModule</title>
<polygon fill="none" stroke="black" stroke-dasharray="1,5" points="1873,-32.8 1873,-160.8 2722,-160.8 2722,-32.8 1873,-32.8"/>
</g>
<g id="clust67" class="cluster">
<title>cluster_OrdersModule_declarations</title>
<polygon fill="none" stroke="black" points="1881,-40.8 1881,-92.8 2431,-92.8 2431,-40.8 1881,-40.8"/>
</g>
<g id="clust71" class="cluster">
<title>cluster_OrdersModule_imports</title>
<polygon fill="none" stroke="black" points="2439,-40.8 2439,-92.8 2714,-92.8 2714,-40.8 2439,-40.8"/>
</g>
<g id="clust81" class="cluster">
<title>cluster_PageNotFoundModule</title>
<polygon fill="none" stroke="black" stroke-dasharray="1,5" points="5850,-32.8 5850,-160.8 6260,-160.8 6260,-32.8 5850,-32.8"/>
</g>
<g id="clust82" class="cluster">
<title>cluster_PageNotFoundModule_declarations</title>
<polygon fill="none" stroke="black" points="6070,-40.8 6070,-92.8 6252,-92.8 6252,-40.8 6070,-40.8"/>
</g>
<g id="clust84" class="cluster">
<title>cluster_PageNotFoundModule_imports</title>
<polygon fill="none" stroke="black" points="5858,-40.8 5858,-92.8 6062,-92.8 6062,-40.8 5858,-40.8"/>
</g>
<g id="clust94" class="cluster">
<title>cluster_SharedModule</title>
<polygon fill="none" stroke="black" stroke-dasharray="1,5" points="2730,-100.8 2730,-168.8 3500,-168.8 3500,-100.8 2730,-100.8"/>
</g>
<g id="clust95" class="cluster">
<title>cluster_SharedModule_declarations</title>
<polygon fill="none" stroke="black" points="3124,-108.8 3124,-160.8 3492,-160.8 3492,-108.8 3124,-108.8"/>
</g>
<g id="clust100" class="cluster">
<title>cluster_SharedModule_exports</title>
<polygon fill="none" stroke="black" points="2738,-108.8 2738,-160.8 3116,-160.8 3116,-108.8 2738,-108.8"/>
</g>
<g id="clust103" class="cluster">
<title>cluster_TemplatesModule</title>
<polygon fill="none" stroke="black" stroke-dasharray="1,5" points="6268,-32.8 6268,-236.8 6706,-236.8 6706,-32.8 6268,-32.8"/>
</g>
<g id="clust104" class="cluster">
<title>cluster_TemplatesModule_declarations</title>
<polygon fill="none" stroke="black" points="6279,-40.8 6279,-92.8 6695,-92.8 6695,-40.8 6279,-40.8"/>
</g>
<g id="clust108" class="cluster">
<title>cluster_TemplatesModule_exports</title>
<polygon fill="none" stroke="black" points="6276,-176.8 6276,-228.8 6698,-228.8 6698,-176.8 6276,-176.8"/>
</g>
<g id="clust111" class="cluster">
<title>cluster_UiModule</title>
<polygon fill="none" stroke="black" stroke-dasharray="1,5" points="6714,-32.8 6714,-236.8 6844,-236.8 6844,-32.8 6714,-32.8"/>
</g>
<g id="clust112" class="cluster">
<title>cluster_UiModule_declarations</title>
<polygon fill="none" stroke="black" points="6723,-40.8 6723,-92.8 6835,-92.8 6835,-40.8 6723,-40.8"/>
</g>
<g id="clust115" class="cluster">
<title>cluster_UiModule_exports</title>
<polygon fill="none" stroke="black" points="6722,-176.8 6722,-228.8 6836,-228.8 6836,-176.8 6722,-176.8"/>
</g>
<!-- AppComponent -->
<g id="node1" class="node">
<title>AppComponent</title>
<polygon fill="#ffffb3" stroke="black" points="129.94,-84.8 24.06,-84.8 24.06,-48.8 129.94,-48.8 129.94,-84.8"/>
<text text-anchor="middle" x="77" y="-62.6" font-family="Times,serif" font-size="14.00">AppComponent</text>
</g>
<!-- AppModule -->
<g id="node4" class="node">
<title>AppModule</title>
<polygon fill="#8dd3c7" stroke="black" points="382.66,-152.8 379.66,-156.8 358.66,-156.8 355.66,-152.8 299.34,-152.8 299.34,-116.8 382.66,-116.8 382.66,-152.8"/>
<text text-anchor="middle" x="341" y="-130.6" font-family="Times,serif" font-size="14.00">AppModule</text>
</g>
<!-- AppComponent&#45;&gt;AppModule -->
<g id="edge1" class="edge">
<title>AppComponent&#45;&gt;AppModule</title>
<path fill="none" stroke="black" d="M77,-85.09C77,-107.01 77,-140.8 77,-140.8 77,-140.8 289.17,-140.8 289.17,-140.8"/>
<polygon fill="black" stroke="black" points="289.17,-144.3 299.17,-140.8 289.17,-137.3 289.17,-144.3"/>
</g>
<!-- FootercrmComponent -->
<g id="node2" class="node">
<title>FootercrmComponent</title>
<polygon fill="#ffffb3" stroke="black" points="410.65,-84.8 271.35,-84.8 271.35,-48.8 410.65,-48.8 410.65,-84.8"/>
<text text-anchor="middle" x="341" y="-62.6" font-family="Times,serif" font-size="14.00">FootercrmComponent</text>
</g>
<!-- FootercrmComponent&#45;&gt;AppModule -->
<g id="edge2" class="edge">
<title>FootercrmComponent&#45;&gt;AppModule</title>
<path fill="none" stroke="black" d="M341,-85.02C341,-85.02 341,-106.53 341,-106.53"/>
<polygon fill="black" stroke="black" points="337.5,-106.53 341,-116.53 344.5,-106.53 337.5,-106.53"/>
</g>
<!-- TestComponent -->
<g id="node3" class="node">
<title>TestComponent</title>
<polygon fill="#ffffb3" stroke="black" points="252.94,-84.8 147.06,-84.8 147.06,-48.8 252.94,-48.8 252.94,-84.8"/>
<text text-anchor="middle" x="200" y="-62.6" font-family="Times,serif" font-size="14.00">TestComponent</text>
</g>
<!-- TestComponent&#45;&gt;AppModule -->
<g id="edge3" class="edge">
<title>TestComponent&#45;&gt;AppModule</title>
<path fill="none" stroke="black" d="M200,-85.07C200,-103.36 200,-128.8 200,-128.8 200,-128.8 289.08,-128.8 289.08,-128.8"/>
<polygon fill="black" stroke="black" points="289.08,-132.3 299.08,-128.8 289.08,-125.3 289.08,-132.3"/>
</g>
<!-- AppComponent  -->
<g id="node7" class="node">
<title>AppComponent </title>
<polygon fill="#80b1d3" stroke="black" points="395.44,-220.8 286.56,-220.8 286.56,-184.8 395.44,-184.8 395.44,-220.8"/>
<text text-anchor="middle" x="341" y="-198.6" font-family="Times,serif" font-size="14.00">AppComponent </text>
</g>
<!-- AppModule&#45;&gt;AppComponent  -->
<g id="edge6" class="edge">
<title>AppModule&#45;&gt;AppComponent </title>
<path fill="none" stroke="black" stroke-dasharray="1,5" d="M341,-153.02C341,-153.02 341,-174.53 341,-174.53"/>
<polygon fill="black" stroke="black" points="337.5,-174.53 341,-184.53 344.5,-174.53 337.5,-174.53"/>
</g>
<!-- AppRoutingModule -->
<g id="node5" class="node">
<title>AppRoutingModule</title>
<polygon fill="#8dd3c7" stroke="black" points="563.28,-84.8 560.28,-88.8 539.28,-88.8 536.28,-84.8 434.72,-84.8 434.72,-48.8 563.28,-48.8 563.28,-84.8"/>
<text text-anchor="middle" x="499" y="-62.6" font-family="Times,serif" font-size="14.00">AppRoutingModule</text>
</g>
<!-- AppRoutingModule&#45;&gt;AppModule -->
<g id="edge4" class="edge">
<title>AppRoutingModule&#45;&gt;AppModule</title>
<path fill="none" stroke="black" d="M499,-84.82C499,-102.17 499,-125.8 499,-125.8 499,-125.8 392.93,-125.8 392.93,-125.8"/>
<polygon fill="black" stroke="black" points="392.93,-122.3 382.93,-125.8 392.93,-129.3 392.93,-122.3"/>
</g>
<!-- CoreModule -->
<g id="node6" class="node">
<title>CoreModule</title>
<polygon fill="#8dd3c7" stroke="black" points="668.27,-84.8 665.27,-88.8 644.27,-88.8 641.27,-84.8 581.73,-84.8 581.73,-48.8 668.27,-48.8 668.27,-84.8"/>
<text text-anchor="middle" x="625" y="-62.6" font-family="Times,serif" font-size="14.00">CoreModule</text>
</g>
<!-- CoreModule&#45;&gt;AppModule -->
<g id="edge5" class="edge">
<title>CoreModule&#45;&gt;AppModule</title>
<path fill="none" stroke="black" d="M610.54,-85.02C610.54,-105.17 610.54,-134.8 610.54,-134.8 610.54,-134.8 392.82,-134.8 392.82,-134.8"/>
<polygon fill="black" stroke="black" points="392.82,-131.3 382.82,-134.8 392.82,-138.3 392.82,-131.3"/>
</g>
<!-- FooterComponent  -->
<g id="node16" class="node">
<title>FooterComponent </title>
<polygon fill="#fb8072" stroke="black" points="1471.88,-152.8 1350.12,-152.8 1350.12,-116.8 1471.88,-116.8 1471.88,-152.8"/>
<text text-anchor="middle" x="1411" y="-130.6" font-family="Times,serif" font-size="14.00">FooterComponent </text>
</g>
<!-- CoreModule&#45;&gt;FooterComponent  -->
<g id="edge14" class="edge">
<title>CoreModule&#45;&gt;FooterComponent </title>
<path fill="none" stroke="black" stroke-dasharray="5,2" d="M668.38,-64.8C833.15,-64.8 1411,-64.8 1411,-64.8 1411,-64.8 1411,-106.77 1411,-106.77"/>
<polygon fill="black" stroke="black" points="1407.5,-106.77 1411,-116.77 1414.5,-106.77 1407.5,-106.77"/>
</g>
<!-- HeaderComponent  -->
<g id="node17" class="node">
<title>HeaderComponent </title>
<polygon fill="#fb8072" stroke="black" points="1332.75,-152.8 1207.25,-152.8 1207.25,-116.8 1332.75,-116.8 1332.75,-152.8"/>
<text text-anchor="middle" x="1270" y="-130.6" font-family="Times,serif" font-size="14.00">HeaderComponent </text>
</g>
<!-- CoreModule&#45;&gt;HeaderComponent  -->
<g id="edge15" class="edge">
<title>CoreModule&#45;&gt;HeaderComponent </title>
<path fill="none" stroke="black" stroke-dasharray="5,2" d="M668.32,-68.8C812.94,-68.8 1270,-68.8 1270,-68.8 1270,-68.8 1270,-106.77 1270,-106.77"/>
<polygon fill="black" stroke="black" points="1266.5,-106.77 1270,-116.77 1273.5,-106.77 1266.5,-106.77"/>
</g>
<!-- IconsModule  -->
<g id="node18" class="node">
<title>IconsModule </title>
<polygon fill="#fb8072" stroke="black" points="1709.88,-152.8 1616.12,-152.8 1616.12,-116.8 1709.88,-116.8 1709.88,-152.8"/>
<text text-anchor="middle" x="1663" y="-130.6" font-family="Times,serif" font-size="14.00">IconsModule </text>
</g>
<!-- CoreModule&#45;&gt;IconsModule  -->
<g id="edge16" class="edge">
<title>CoreModule&#45;&gt;IconsModule </title>
<path fill="none" stroke="black" stroke-dasharray="5,2" d="M668.28,-56.8C862.89,-56.8 1647.44,-56.8 1647.44,-56.8 1647.44,-56.8 1647.44,-106.71 1647.44,-106.71"/>
<polygon fill="black" stroke="black" points="1643.94,-106.71 1647.44,-116.71 1650.94,-106.71 1643.94,-106.71"/>
</g>
<!-- NavComponent  -->
<g id="node19" class="node">
<title>NavComponent </title>
<polygon fill="#fb8072" stroke="black" points="1598.16,-152.8 1489.84,-152.8 1489.84,-116.8 1598.16,-116.8 1598.16,-152.8"/>
<text text-anchor="middle" x="1544" y="-130.6" font-family="Times,serif" font-size="14.00">NavComponent </text>
</g>
<!-- CoreModule&#45;&gt;NavComponent  -->
<g id="edge17" class="edge">
<title>CoreModule&#45;&gt;NavComponent </title>
<path fill="none" stroke="black" stroke-dasharray="5,2" d="M668.4,-60.8C850.56,-60.8 1544,-60.8 1544,-60.8 1544,-60.8 1544,-106.51 1544,-106.51"/>
<polygon fill="black" stroke="black" points="1540.5,-106.51 1544,-116.51 1547.5,-106.51 1540.5,-106.51"/>
</g>
<!-- TemplatesModule  -->
<g id="node20" class="node">
<title>TemplatesModule </title>
<polygon fill="#fb8072" stroke="black" points="1848.86,-152.8 1727.14,-152.8 1727.14,-116.8 1848.86,-116.8 1848.86,-152.8"/>
<text text-anchor="middle" x="1788" y="-130.6" font-family="Times,serif" font-size="14.00">TemplatesModule </text>
</g>
<!-- CoreModule&#45;&gt;TemplatesModule  -->
<g id="edge18" class="edge">
<title>CoreModule&#45;&gt;TemplatesModule </title>
<path fill="none" stroke="black" stroke-dasharray="5,2" d="M668.4,-52.8C877.14,-52.8 1767.77,-52.8 1767.77,-52.8 1767.77,-52.8 1767.77,-106.6 1767.77,-106.6"/>
<polygon fill="black" stroke="black" points="1764.27,-106.6 1767.77,-116.6 1771.27,-106.6 1764.27,-106.6"/>
</g>
<!-- UiModule  -->
<g id="node21" class="node">
<title>UiModule </title>
<polygon fill="#fb8072" stroke="black" points="1189.55,-152.8 1112.45,-152.8 1112.45,-116.8 1189.55,-116.8 1189.55,-152.8"/>
<text text-anchor="middle" x="1151" y="-130.6" font-family="Times,serif" font-size="14.00">UiModule </text>
</g>
<!-- CoreModule&#45;&gt;UiModule  -->
<g id="edge19" class="edge">
<title>CoreModule&#45;&gt;UiModule </title>
<path fill="none" stroke="black" stroke-dasharray="5,2" d="M668.49,-72.8C794.52,-72.8 1151,-72.8 1151,-72.8 1151,-72.8 1151,-106.53 1151,-106.53"/>
<polygon fill="black" stroke="black" points="1147.5,-106.53 1151,-116.53 1154.5,-106.53 1147.5,-106.53"/>
</g>
<!-- PageAddClientComponent -->
<g id="node8" class="node">
<title>PageAddClientComponent</title>
<polygon fill="#ffffb3" stroke="black" points="3858.38,-84.8 3691.62,-84.8 3691.62,-48.8 3858.38,-48.8 3858.38,-84.8"/>
<text text-anchor="middle" x="3775" y="-62.6" font-family="Times,serif" font-size="14.00">PageAddClientComponent</text>
</g>
<!-- ClientsModule -->
<g id="node11" class="node">
<title>ClientsModule</title>
<polygon fill="#8dd3c7" stroke="black" points="3917.72,-152.8 3914.72,-156.8 3893.72,-156.8 3890.72,-152.8 3818.28,-152.8 3818.28,-116.8 3917.72,-116.8 3917.72,-152.8"/>
<text text-anchor="middle" x="3868" y="-130.6" font-family="Times,serif" font-size="14.00">ClientsModule</text>
</g>
<!-- PageAddClientComponent&#45;&gt;ClientsModule -->
<g id="edge7" class="edge">
<title>PageAddClientComponent&#45;&gt;ClientsModule</title>
<path fill="none" stroke="black" d="M3838.41,-85.02C3838.41,-85.02 3838.41,-106.53 3838.41,-106.53"/>
<polygon fill="black" stroke="black" points="3834.91,-106.53 3838.41,-116.53 3841.91,-106.53 3834.91,-106.53"/>
</g>
<!-- PageEditClientComponent -->
<g id="node9" class="node">
<title>PageEditClientComponent</title>
<polygon fill="#ffffb3" stroke="black" points="4230.1,-84.8 4063.9,-84.8 4063.9,-48.8 4230.1,-48.8 4230.1,-84.8"/>
<text text-anchor="middle" x="4147" y="-62.6" font-family="Times,serif" font-size="14.00">PageEditClientComponent</text>
</g>
<!-- PageEditClientComponent&#45;&gt;ClientsModule -->
<g id="edge8" class="edge">
<title>PageEditClientComponent&#45;&gt;ClientsModule</title>
<path fill="none" stroke="black" d="M4147,-84.82C4147,-102.17 4147,-125.8 4147,-125.8 4147,-125.8 3927.88,-125.8 3927.88,-125.8"/>
<polygon fill="black" stroke="black" points="3927.88,-122.3 3917.88,-125.8 3927.88,-129.3 3927.88,-122.3"/>
</g>
<!-- PageListClientsComponent -->
<g id="node10" class="node">
<title>PageListClientsComponent</title>
<polygon fill="#ffffb3" stroke="black" points="4045.99,-84.8 3876.01,-84.8 3876.01,-48.8 4045.99,-48.8 4045.99,-84.8"/>
<text text-anchor="middle" x="3961" y="-62.6" font-family="Times,serif" font-size="14.00">PageListClientsComponent</text>
</g>
<!-- PageListClientsComponent&#45;&gt;ClientsModule -->
<g id="edge9" class="edge">
<title>PageListClientsComponent&#45;&gt;ClientsModule</title>
<path fill="none" stroke="black" d="M3896.81,-85.02C3896.81,-85.02 3896.81,-106.53 3896.81,-106.53"/>
<polygon fill="black" stroke="black" points="3893.31,-106.53 3896.81,-116.53 3900.31,-106.53 3893.31,-106.53"/>
</g>
<!-- ClientsRoutingModule -->
<g id="node12" class="node">
<title>ClientsRoutingModule</title>
<polygon fill="#8dd3c7" stroke="black" points="3668.34,-84.8 3665.34,-88.8 3644.34,-88.8 3641.34,-84.8 3523.66,-84.8 3523.66,-48.8 3668.34,-48.8 3668.34,-84.8"/>
<text text-anchor="middle" x="3596" y="-62.6" font-family="Times,serif" font-size="14.00">ClientsRoutingModule</text>
</g>
<!-- ClientsRoutingModule&#45;&gt;ClientsModule -->
<g id="edge10" class="edge">
<title>ClientsRoutingModule&#45;&gt;ClientsModule</title>
<path fill="none" stroke="black" d="M3596,-85.02C3596,-105.17 3596,-134.8 3596,-134.8 3596,-134.8 3808.11,-134.8 3808.11,-134.8"/>
<polygon fill="black" stroke="black" points="3808.11,-138.3 3818.11,-134.8 3808.11,-131.3 3808.11,-138.3"/>
</g>
<!-- FooterComponent -->
<g id="node13" class="node">
<title>FooterComponent</title>
<polygon fill="#ffffb3" stroke="black" points="1087.88,-152.8 970.12,-152.8 970.12,-116.8 1087.88,-116.8 1087.88,-152.8"/>
<text text-anchor="middle" x="1029" y="-130.6" font-family="Times,serif" font-size="14.00">FooterComponent</text>
</g>
<!-- FooterComponent&#45;&gt;CoreModule -->
<g id="edge11" class="edge">
<title>FooterComponent&#45;&gt;CoreModule</title>
<path fill="none" stroke="black" d="M1029,-116.77C1029,-99.74 1029,-76.8 1029,-76.8 1029,-76.8 678.62,-76.8 678.62,-76.8"/>
<polygon fill="black" stroke="black" points="678.62,-73.3 668.62,-76.8 678.62,-80.3 678.62,-73.3"/>
</g>
<!-- HeaderComponent -->
<g id="node14" class="node">
<title>HeaderComponent</title>
<polygon fill="#ffffb3" stroke="black" points="951.75,-152.8 830.25,-152.8 830.25,-116.8 951.75,-116.8 951.75,-152.8"/>
<text text-anchor="middle" x="891" y="-130.6" font-family="Times,serif" font-size="14.00">HeaderComponent</text>
</g>
<!-- HeaderComponent&#45;&gt;CoreModule -->
<g id="edge12" class="edge">
<title>HeaderComponent&#45;&gt;CoreModule</title>
<path fill="none" stroke="black" d="M891,-116.52C891,-100.85 891,-80.8 891,-80.8 891,-80.8 678.33,-80.8 678.33,-80.8"/>
<polygon fill="black" stroke="black" points="678.33,-77.3 668.33,-80.8 678.33,-84.3 678.33,-77.3"/>
</g>
<!-- NavComponent -->
<g id="node15" class="node">
<title>NavComponent</title>
<polygon fill="#ffffb3" stroke="black" points="812.16,-152.8 707.84,-152.8 707.84,-116.8 812.16,-116.8 812.16,-152.8"/>
<text text-anchor="middle" x="760" y="-130.6" font-family="Times,serif" font-size="14.00">NavComponent</text>
</g>
<!-- NavComponent&#45;&gt;CoreModule -->
<g id="edge13" class="edge">
<title>NavComponent&#45;&gt;CoreModule</title>
<path fill="none" stroke="black" d="M707.83,-143.8C675.25,-143.8 639.46,-143.8 639.46,-143.8 639.46,-143.8 639.46,-95.05 639.46,-95.05"/>
<polygon fill="black" stroke="black" points="642.96,-95.05 639.46,-85.05 635.96,-95.05 642.96,-95.05"/>
</g>
<!-- IconCloseComponent -->
<g id="node22" class="node">
<title>IconCloseComponent</title>
<polygon fill="#ffffb3" stroke="black" points="4873.1,-84.8 4734.9,-84.8 4734.9,-48.8 4873.1,-48.8 4873.1,-84.8"/>
<text text-anchor="middle" x="4804" y="-62.6" font-family="Times,serif" font-size="14.00">IconCloseComponent</text>
</g>
<!-- IconsModule -->
<g id="node26" class="node">
<title>IconsModule</title>
<polygon fill="#8dd3c7" stroke="black" points="4538.88,-152.8 4535.88,-156.8 4514.88,-156.8 4511.88,-152.8 4449.12,-152.8 4449.12,-116.8 4538.88,-116.8 4538.88,-152.8"/>
<text text-anchor="middle" x="4494" y="-130.6" font-family="Times,serif" font-size="14.00">IconsModule</text>
</g>
<!-- IconCloseComponent&#45;&gt;IconsModule -->
<g id="edge20" class="edge">
<title>IconCloseComponent&#45;&gt;IconsModule</title>
<path fill="none" stroke="black" d="M4827.77,-85.08C4827.77,-106.12 4827.77,-137.8 4827.77,-137.8 4827.77,-137.8 4549.01,-137.8 4549.01,-137.8"/>
<polygon fill="black" stroke="black" points="4549.01,-134.3 4539.01,-137.8 4549.01,-141.3 4549.01,-134.3"/>
</g>
<!-- IconDeleteComponent -->
<g id="node23" class="node">
<title>IconDeleteComponent</title>
<polygon fill="#ffffb3" stroke="black" points="4717.24,-84.8 4574.76,-84.8 4574.76,-48.8 4717.24,-48.8 4717.24,-84.8"/>
<text text-anchor="middle" x="4646" y="-62.6" font-family="Times,serif" font-size="14.00">IconDeleteComponent</text>
</g>
<!-- IconDeleteComponent&#45;&gt;IconsModule -->
<g id="edge21" class="edge">
<title>IconDeleteComponent&#45;&gt;IconsModule</title>
<path fill="none" stroke="black" d="M4669.79,-84.83C4669.79,-104.38 4669.79,-132.8 4669.79,-132.8 4669.79,-132.8 4549.27,-132.8 4549.27,-132.8"/>
<polygon fill="black" stroke="black" points="4549.27,-129.3 4539.27,-132.8 4549.27,-136.3 4549.27,-129.3"/>
</g>
<!-- IconEditComponent -->
<g id="node24" class="node">
<title>IconEditComponent</title>
<polygon fill="#ffffb3" stroke="black" points="4556.54,-84.8 4427.46,-84.8 4427.46,-48.8 4556.54,-48.8 4556.54,-84.8"/>
<text text-anchor="middle" x="4492" y="-62.6" font-family="Times,serif" font-size="14.00">IconEditComponent</text>
</g>
<!-- IconEditComponent&#45;&gt;IconsModule -->
<g id="edge22" class="edge">
<title>IconEditComponent&#45;&gt;IconsModule</title>
<path fill="none" stroke="black" d="M4494,-85.02C4494,-85.02 4494,-106.53 4494,-106.53"/>
<polygon fill="black" stroke="black" points="4490.5,-106.53 4494,-116.53 4497.5,-106.53 4490.5,-106.53"/>
</g>
<!-- IconNavComponent -->
<g id="node25" class="node">
<title>IconNavComponent</title>
<polygon fill="#ffffb3" stroke="black" points="4408.53,-84.8 4279.47,-84.8 4279.47,-48.8 4408.53,-48.8 4408.53,-84.8"/>
<text text-anchor="middle" x="4344" y="-62.6" font-family="Times,serif" font-size="14.00">IconNavComponent</text>
</g>
<!-- IconNavComponent&#45;&gt;IconsModule -->
<g id="edge23" class="edge">
<title>IconNavComponent&#45;&gt;IconsModule</title>
<path fill="none" stroke="black" d="M4362.09,-85.02C4362.09,-105.17 4362.09,-134.8 4362.09,-134.8 4362.09,-134.8 4438.97,-134.8 4438.97,-134.8"/>
<polygon fill="black" stroke="black" points="4438.97,-138.3 4448.97,-134.8 4438.97,-131.3 4438.97,-138.3"/>
</g>
<!-- IconCloseComponent  -->
<g id="node27" class="node">
<title>IconCloseComponent </title>
<polygon fill="#fb8072" stroke="black" points="4878.6,-220.8 4737.4,-220.8 4737.4,-184.8 4878.6,-184.8 4878.6,-220.8"/>
<text text-anchor="middle" x="4808" y="-198.6" font-family="Times,serif" font-size="14.00">IconCloseComponent </text>
</g>
<!-- IconsModule&#45;&gt;IconCloseComponent  -->
<g id="edge24" class="edge">
<title>IconsModule&#45;&gt;IconCloseComponent </title>
<path fill="none" stroke="black" stroke-dasharray="5,2" d="M4539.08,-142.8C4620.21,-142.8 4782.48,-142.8 4782.48,-142.8 4782.48,-142.8 4782.48,-174.8 4782.48,-174.8"/>
<polygon fill="black" stroke="black" points="4778.98,-174.8 4782.48,-184.8 4785.98,-174.8 4778.98,-174.8"/>
</g>
<!-- IconDeleteComponent  -->
<g id="node28" class="node">
<title>IconDeleteComponent </title>
<polygon fill="#fb8072" stroke="black" points="4719.24,-220.8 4572.76,-220.8 4572.76,-184.8 4719.24,-184.8 4719.24,-220.8"/>
<text text-anchor="middle" x="4646" y="-198.6" font-family="Times,serif" font-size="14.00">IconDeleteComponent </text>
</g>
<!-- IconsModule&#45;&gt;IconDeleteComponent  -->
<g id="edge25" class="edge">
<title>IconsModule&#45;&gt;IconDeleteComponent </title>
<path fill="none" stroke="black" stroke-dasharray="5,2" d="M4539.2,-147.8C4576.11,-147.8 4622.21,-147.8 4622.21,-147.8 4622.21,-147.8 4622.21,-174.79 4622.21,-174.79"/>
<polygon fill="black" stroke="black" points="4618.71,-174.79 4622.21,-184.79 4625.71,-174.79 4618.71,-174.79"/>
</g>
<!-- IconEditComponent  -->
<g id="node29" class="node">
<title>IconEditComponent </title>
<polygon fill="#fb8072" stroke="black" points="4554.54,-220.8 4421.46,-220.8 4421.46,-184.8 4554.54,-184.8 4554.54,-220.8"/>
<text text-anchor="middle" x="4488" y="-198.6" font-family="Times,serif" font-size="14.00">IconEditComponent </text>
</g>
<!-- IconsModule&#45;&gt;IconEditComponent  -->
<g id="edge26" class="edge">
<title>IconsModule&#45;&gt;IconEditComponent </title>
<path fill="none" stroke="black" stroke-dasharray="5,2" d="M4494,-153.02C4494,-153.02 4494,-174.53 4494,-174.53"/>
<polygon fill="black" stroke="black" points="4490.5,-174.53 4494,-184.53 4497.5,-174.53 4490.5,-174.53"/>
</g>
<!-- IconNavComponent  -->
<g id="node30" class="node">
<title>IconNavComponent </title>
<polygon fill="#fb8072" stroke="black" points="4403.53,-220.8 4270.47,-220.8 4270.47,-184.8 4403.53,-184.8 4403.53,-220.8"/>
<text text-anchor="middle" x="4337" y="-198.6" font-family="Times,serif" font-size="14.00">IconNavComponent </text>
</g>
<!-- IconsModule&#45;&gt;IconNavComponent  -->
<g id="edge27" class="edge">
<title>IconsModule&#45;&gt;IconNavComponent </title>
<path fill="none" stroke="black" stroke-dasharray="5,2" d="M4448.91,-143.8C4397.55,-143.8 4320.66,-143.8 4320.66,-143.8 4320.66,-143.8 4320.66,-174.78 4320.66,-174.78"/>
<polygon fill="black" stroke="black" points="4317.16,-174.78 4320.66,-184.78 4324.16,-174.78 4317.16,-174.78"/>
</g>
<!-- PageForgotPasswordComponent -->
<g id="node31" class="node">
<title>PageForgotPasswordComponent</title>
<polygon fill="#ffffb3" stroke="black" points="5825.55,-84.8 5626.45,-84.8 5626.45,-48.8 5825.55,-48.8 5825.55,-84.8"/>
<text text-anchor="middle" x="5726" y="-62.6" font-family="Times,serif" font-size="14.00">PageForgotPasswordComponent</text>
</g>
<!-- LoginModule -->
<g id="node35" class="node">
<title>LoginModule</title>
<polygon fill="#8dd3c7" stroke="black" points="5370.49,-152.8 5367.49,-156.8 5346.49,-156.8 5343.49,-152.8 5277.51,-152.8 5277.51,-116.8 5370.49,-116.8 5370.49,-152.8"/>
<text text-anchor="middle" x="5324" y="-130.6" font-family="Times,serif" font-size="14.00">LoginModule</text>
</g>
<!-- PageForgotPasswordComponent&#45;&gt;LoginModule -->
<g id="edge28" class="edge">
<title>PageForgotPasswordComponent&#45;&gt;LoginModule</title>
<path fill="none" stroke="black" d="M5726,-85.09C5726,-107.01 5726,-140.8 5726,-140.8 5726,-140.8 5380.51,-140.8 5380.51,-140.8"/>
<polygon fill="black" stroke="black" points="5380.51,-137.3 5370.51,-140.8 5380.51,-144.3 5380.51,-137.3"/>
</g>
<!-- PageResetPasswordComponent -->
<g id="node32" class="node">
<title>PageResetPasswordComponent</title>
<polygon fill="#ffffb3" stroke="black" points="5608.82,-84.8 5415.18,-84.8 5415.18,-48.8 5608.82,-48.8 5608.82,-84.8"/>
<text text-anchor="middle" x="5512" y="-62.6" font-family="Times,serif" font-size="14.00">PageResetPasswordComponent</text>
</g>
<!-- PageResetPasswordComponent&#45;&gt;LoginModule -->
<g id="edge29" class="edge">
<title>PageResetPasswordComponent&#45;&gt;LoginModule</title>
<path fill="none" stroke="black" d="M5512,-85.07C5512,-103.36 5512,-128.8 5512,-128.8 5512,-128.8 5380.96,-128.8 5380.96,-128.8"/>
<polygon fill="black" stroke="black" points="5380.96,-125.3 5370.96,-128.8 5380.96,-132.3 5380.96,-125.3"/>
</g>
<!-- PageSignInComponent -->
<g id="node33" class="node">
<title>PageSignInComponent</title>
<polygon fill="#ffffb3" stroke="black" points="5396.88,-84.8 5251.12,-84.8 5251.12,-48.8 5396.88,-48.8 5396.88,-84.8"/>
<text text-anchor="middle" x="5324" y="-62.6" font-family="Times,serif" font-size="14.00">PageSignInComponent</text>
</g>
<!-- PageSignInComponent&#45;&gt;LoginModule -->
<g id="edge30" class="edge">
<title>PageSignInComponent&#45;&gt;LoginModule</title>
<path fill="none" stroke="black" d="M5324,-85.02C5324,-85.02 5324,-106.53 5324,-106.53"/>
<polygon fill="black" stroke="black" points="5320.5,-106.53 5324,-116.53 5327.5,-106.53 5320.5,-106.53"/>
</g>
<!-- PageSignUpComponent -->
<g id="node34" class="node">
<title>PageSignUpComponent</title>
<polygon fill="#ffffb3" stroke="black" points="5232.83,-84.8 5081.17,-84.8 5081.17,-48.8 5232.83,-48.8 5232.83,-84.8"/>
<text text-anchor="middle" x="5157" y="-62.6" font-family="Times,serif" font-size="14.00">PageSignUpComponent</text>
</g>
<!-- PageSignUpComponent&#45;&gt;LoginModule -->
<g id="edge31" class="edge">
<title>PageSignUpComponent&#45;&gt;LoginModule</title>
<path fill="none" stroke="black" d="M5157,-84.83C5157,-101.2 5157,-122.8 5157,-122.8 5157,-122.8 5267.48,-122.8 5267.48,-122.8"/>
<polygon fill="black" stroke="black" points="5267.48,-126.3 5277.48,-122.8 5267.48,-119.3 5267.48,-126.3"/>
</g>
<!-- LoginRoutingModule -->
<g id="node36" class="node">
<title>LoginRoutingModule</title>
<polygon fill="#8dd3c7" stroke="black" points="5057.11,-84.8 5054.11,-88.8 5033.11,-88.8 5030.11,-84.8 4918.89,-84.8 4918.89,-48.8 5057.11,-48.8 5057.11,-84.8"/>
<text text-anchor="middle" x="4988" y="-62.6" font-family="Times,serif" font-size="14.00">LoginRoutingModule</text>
</g>
<!-- LoginRoutingModule&#45;&gt;LoginModule -->
<g id="edge32" class="edge">
<title>LoginRoutingModule&#45;&gt;LoginModule</title>
<path fill="none" stroke="black" d="M4988,-85.1C4988,-103.07 4988,-127.8 4988,-127.8 4988,-127.8 5267.28,-127.8 5267.28,-127.8"/>
<polygon fill="black" stroke="black" points="5267.28,-131.3 5277.28,-127.8 5267.28,-124.3 5267.28,-131.3"/>
</g>
<!-- PageAddOrderComponent -->
<g id="node37" class="node">
<title>PageAddOrderComponent</title>
<polygon fill="#ffffb3" stroke="black" points="2054.8,-84.8 1889.2,-84.8 1889.2,-48.8 2054.8,-48.8 2054.8,-84.8"/>
<text text-anchor="middle" x="1972" y="-62.6" font-family="Times,serif" font-size="14.00">PageAddOrderComponent</text>
</g>
<!-- OrdersModule -->
<g id="node40" class="node">
<title>OrdersModule</title>
<polygon fill="#8dd3c7" stroke="black" points="2389.65,-152.8 2386.65,-156.8 2365.65,-156.8 2362.65,-152.8 2292.35,-152.8 2292.35,-116.8 2389.65,-116.8 2389.65,-152.8"/>
<text text-anchor="middle" x="2341" y="-130.6" font-family="Times,serif" font-size="14.00">OrdersModule</text>
</g>
<!-- PageAddOrderComponent&#45;&gt;OrdersModule -->
<g id="edge33" class="edge">
<title>PageAddOrderComponent&#45;&gt;OrdersModule</title>
<path fill="none" stroke="black" d="M1972,-85.09C1972,-107.01 1972,-140.8 1972,-140.8 1972,-140.8 2282,-140.8 2282,-140.8"/>
<polygon fill="black" stroke="black" points="2282,-144.3 2292,-140.8 2282,-137.3 2282,-144.3"/>
</g>
<!-- PageEditOrderComponent -->
<g id="node38" class="node">
<title>PageEditOrderComponent</title>
<polygon fill="#ffffb3" stroke="black" points="2423.03,-84.8 2258.97,-84.8 2258.97,-48.8 2423.03,-48.8 2423.03,-84.8"/>
<text text-anchor="middle" x="2341" y="-62.6" font-family="Times,serif" font-size="14.00">PageEditOrderComponent</text>
</g>
<!-- PageEditOrderComponent&#45;&gt;OrdersModule -->
<g id="edge34" class="edge">
<title>PageEditOrderComponent&#45;&gt;OrdersModule</title>
<path fill="none" stroke="black" d="M2341,-85.02C2341,-85.02 2341,-106.53 2341,-106.53"/>
<polygon fill="black" stroke="black" points="2337.5,-106.53 2341,-116.53 2344.5,-106.53 2337.5,-106.53"/>
</g>
<!-- PageListOrdersComponent -->
<g id="node39" class="node">
<title>PageListOrdersComponent</title>
<polygon fill="#ffffb3" stroke="black" points="2241.42,-84.8 2072.58,-84.8 2072.58,-48.8 2241.42,-48.8 2241.42,-84.8"/>
<text text-anchor="middle" x="2157" y="-62.6" font-family="Times,serif" font-size="14.00">PageListOrdersComponent</text>
</g>
<!-- PageListOrdersComponent&#45;&gt;OrdersModule -->
<g id="edge35" class="edge">
<title>PageListOrdersComponent&#45;&gt;OrdersModule</title>
<path fill="none" stroke="black" d="M2157,-85.07C2157,-103.36 2157,-128.8 2157,-128.8 2157,-128.8 2282.17,-128.8 2282.17,-128.8"/>
<polygon fill="black" stroke="black" points="2282.17,-132.3 2292.17,-128.8 2282.17,-125.3 2282.17,-132.3"/>
</g>
<!-- OrdersRoutingModule -->
<g id="node41" class="node">
<title>OrdersRoutingModule</title>
<polygon fill="#8dd3c7" stroke="black" points="2589.27,-84.8 2586.27,-88.8 2565.27,-88.8 2562.27,-84.8 2446.73,-84.8 2446.73,-48.8 2589.27,-48.8 2589.27,-84.8"/>
<text text-anchor="middle" x="2518" y="-62.6" font-family="Times,serif" font-size="14.00">OrdersRoutingModule</text>
</g>
<!-- OrdersRoutingModule&#45;&gt;OrdersModule -->
<g id="edge36" class="edge">
<title>OrdersRoutingModule&#45;&gt;OrdersModule</title>
<path fill="none" stroke="black" d="M2518,-85.07C2518,-103.36 2518,-128.8 2518,-128.8 2518,-128.8 2399.83,-128.8 2399.83,-128.8"/>
<polygon fill="black" stroke="black" points="2399.83,-125.3 2389.83,-128.8 2399.83,-132.3 2399.83,-125.3"/>
</g>
<!-- SharedModule -->
<g id="node42" class="node">
<title>SharedModule</title>
<polygon fill="#8dd3c7" stroke="black" points="2706.43,-84.8 2703.43,-88.8 2682.43,-88.8 2679.43,-84.8 2607.57,-84.8 2607.57,-48.8 2706.43,-48.8 2706.43,-84.8"/>
<text text-anchor="middle" x="2657" y="-62.6" font-family="Times,serif" font-size="14.00">SharedModule</text>
</g>
<!-- SharedModule&#45;&gt;IconsModule  -->
<g id="edge44" class="edge">
<title>SharedModule&#45;&gt;IconsModule </title>
<path fill="none" stroke="black" stroke-dasharray="5,2" d="M2632.39,-85C2632.39,-90.83 2632.39,-95.8 2632.39,-95.8 2632.39,-95.8 1678.56,-95.8 1678.56,-95.8 1678.56,-95.8 1678.56,-106.67 1678.56,-106.67"/>
<polygon fill="black" stroke="black" points="1675.06,-106.67 1678.56,-116.67 1682.06,-106.67 1675.06,-106.67"/>
</g>
<!-- SharedModule&#45;&gt;TemplatesModule  -->
<g id="edge46" class="edge">
<title>SharedModule&#45;&gt;TemplatesModule </title>
<path fill="none" stroke="black" stroke-dasharray="5,2" d="M2657,-84.93C2657,-95.51 2657,-106.8 2657,-106.8 2657,-106.8 1808.23,-106.8 1808.23,-106.8 1808.23,-106.8 1808.23,-107.78 1808.23,-107.78"/>
<polygon fill="black" stroke="black" points="1804.73,-106.59 1808.23,-116.59 1811.73,-106.59 1804.73,-106.59"/>
</g>
<!-- SharedModule&#45;&gt;OrdersModule -->
<g id="edge37" class="edge">
<title>SharedModule&#45;&gt;OrdersModule</title>
<path fill="none" stroke="black" d="M2681.61,-85.09C2681.61,-107.01 2681.61,-140.8 2681.61,-140.8 2681.61,-140.8 2399.8,-140.8 2399.8,-140.8"/>
<polygon fill="black" stroke="black" points="2399.8,-137.3 2389.8,-140.8 2399.8,-144.3 2399.8,-137.3"/>
</g>
<!-- BtnComponent  -->
<g id="node49" class="node">
<title>BtnComponent </title>
<polygon fill="#fb8072" stroke="black" points="3107.56,-152.8 3002.44,-152.8 3002.44,-116.8 3107.56,-116.8 3107.56,-152.8"/>
<text text-anchor="middle" x="3055" y="-130.6" font-family="Times,serif" font-size="14.00">BtnComponent </text>
</g>
<!-- SharedModule&#45;&gt;BtnComponent  -->
<g id="edge43" class="edge">
<title>SharedModule&#45;&gt;BtnComponent </title>
<path fill="none" stroke="black" stroke-dasharray="5,2" d="M2706.6,-69.8C2813.29,-69.8 3055,-69.8 3055,-69.8 3055,-69.8 3055,-106.69 3055,-106.69"/>
<polygon fill="black" stroke="black" points="3051.5,-106.69 3055,-116.69 3058.5,-106.69 3051.5,-106.69"/>
</g>
<!-- TableLightComponent  -->
<g id="node50" class="node">
<title>TableLightComponent </title>
<polygon fill="#fb8072" stroke="black" points="2984.53,-152.8 2837.47,-152.8 2837.47,-116.8 2984.53,-116.8 2984.53,-152.8"/>
<text text-anchor="middle" x="2911" y="-130.6" font-family="Times,serif" font-size="14.00">TableLightComponent </text>
</g>
<!-- SharedModule&#45;&gt;TableLightComponent  -->
<g id="edge45" class="edge">
<title>SharedModule&#45;&gt;TableLightComponent </title>
<path fill="none" stroke="black" stroke-dasharray="5,2" d="M2706.27,-74.8C2780.14,-74.8 2911,-74.8 2911,-74.8 2911,-74.8 2911,-106.8 2911,-106.8"/>
<polygon fill="black" stroke="black" points="2907.5,-106.8 2911,-116.8 2914.5,-106.8 2907.5,-106.8"/>
</g>
<!-- TotalPipe  -->
<g id="node51" class="node">
<title>TotalPipe </title>
<polygon fill="#fb8072" stroke="black" points="2819.93,-152.8 2746.07,-152.8 2746.07,-116.8 2819.93,-116.8 2819.93,-152.8"/>
<text text-anchor="middle" x="2783" y="-130.6" font-family="Times,serif" font-size="14.00">TotalPipe </text>
</g>
<!-- SharedModule&#45;&gt;TotalPipe  -->
<g id="edge47" class="edge">
<title>SharedModule&#45;&gt;TotalPipe </title>
<path fill="none" stroke="black" stroke-dasharray="5,2" d="M2706.44,-79.8C2741.74,-79.8 2783,-79.8 2783,-79.8 2783,-79.8 2783,-106.79 2783,-106.79"/>
<polygon fill="black" stroke="black" points="2779.5,-106.79 2783,-116.79 2786.5,-106.79 2779.5,-106.79"/>
</g>
<!-- PageNotFoundComponent -->
<g id="node43" class="node">
<title>PageNotFoundComponent</title>
<polygon fill="#ffffb3" stroke="black" points="6243.83,-84.8 6078.17,-84.8 6078.17,-48.8 6243.83,-48.8 6243.83,-84.8"/>
<text text-anchor="middle" x="6161" y="-62.6" font-family="Times,serif" font-size="14.00">PageNotFoundComponent</text>
</g>
<!-- PageNotFoundModule -->
<g id="node44" class="node">
<title>PageNotFoundModule</title>
<polygon fill="#8dd3c7" stroke="black" points="6131.55,-152.8 6128.55,-156.8 6107.55,-156.8 6104.55,-152.8 5988.45,-152.8 5988.45,-116.8 6131.55,-116.8 6131.55,-152.8"/>
<text text-anchor="middle" x="6060" y="-130.6" font-family="Times,serif" font-size="14.00">PageNotFoundModule</text>
</g>
<!-- PageNotFoundComponent&#45;&gt;PageNotFoundModule -->
<g id="edge38" class="edge">
<title>PageNotFoundComponent&#45;&gt;PageNotFoundModule</title>
<path fill="none" stroke="black" d="M6105.06,-85.02C6105.06,-85.02 6105.06,-106.53 6105.06,-106.53"/>
<polygon fill="black" stroke="black" points="6101.56,-106.53 6105.06,-116.53 6108.56,-106.53 6101.56,-106.53"/>
</g>
<!-- PageNotFoundRoutingModule -->
<g id="node45" class="node">
<title>PageNotFoundRoutingModule</title>
<polygon fill="#8dd3c7" stroke="black" points="6054.17,-84.8 6051.17,-88.8 6030.17,-88.8 6027.17,-84.8 5865.83,-84.8 5865.83,-48.8 6054.17,-48.8 6054.17,-84.8"/>
<text text-anchor="middle" x="5960" y="-62.6" font-family="Times,serif" font-size="14.00">PageNotFoundRoutingModule</text>
</g>
<!-- PageNotFoundRoutingModule&#45;&gt;PageNotFoundModule -->
<g id="edge39" class="edge">
<title>PageNotFoundRoutingModule&#45;&gt;PageNotFoundModule</title>
<path fill="none" stroke="black" d="M6021.28,-85.02C6021.28,-85.02 6021.28,-106.53 6021.28,-106.53"/>
<polygon fill="black" stroke="black" points="6017.78,-106.53 6021.28,-116.53 6024.78,-106.53 6017.78,-106.53"/>
</g>
<!-- BtnComponent -->
<g id="node46" class="node">
<title>BtnComponent</title>
<polygon fill="#ffffb3" stroke="black" points="3483.56,-152.8 3382.44,-152.8 3382.44,-116.8 3483.56,-116.8 3483.56,-152.8"/>
<text text-anchor="middle" x="3433" y="-130.6" font-family="Times,serif" font-size="14.00">BtnComponent</text>
</g>
<!-- BtnComponent&#45;&gt;SharedModule -->
<g id="edge40" class="edge">
<title>BtnComponent&#45;&gt;SharedModule</title>
<path fill="none" stroke="black" d="M3433,-116.65C3433,-93.04 3433,-54.8 3433,-54.8 3433,-54.8 2716.43,-54.8 2716.43,-54.8"/>
<polygon fill="black" stroke="black" points="2716.43,-51.3 2706.43,-54.8 2716.43,-58.3 2716.43,-51.3"/>
</g>
<!-- TableLightComponent -->
<g id="node47" class="node">
<title>TableLightComponent</title>
<polygon fill="#ffffb3" stroke="black" points="3363.53,-152.8 3220.47,-152.8 3220.47,-116.8 3363.53,-116.8 3363.53,-152.8"/>
<text text-anchor="middle" x="3292" y="-130.6" font-family="Times,serif" font-size="14.00">TableLightComponent</text>
</g>
<!-- TableLightComponent&#45;&gt;SharedModule -->
<g id="edge41" class="edge">
<title>TableLightComponent&#45;&gt;SharedModule</title>
<path fill="none" stroke="black" d="M3292,-116.64C3292,-94.45 3292,-59.8 3292,-59.8 3292,-59.8 2716.3,-59.8 2716.3,-59.8"/>
<polygon fill="black" stroke="black" points="2716.3,-56.3 2706.3,-59.8 2716.3,-63.3 2716.3,-56.3"/>
</g>
<!-- TotalPipe -->
<g id="node48" class="node">
<title>TotalPipe</title>
<polygon fill="#ffffb3" stroke="black" points="3202.44,-152.8 3131.56,-152.8 3131.56,-116.8 3202.44,-116.8 3202.44,-152.8"/>
<text text-anchor="middle" x="3167" y="-130.6" font-family="Times,serif" font-size="14.00">TotalPipe</text>
</g>
<!-- TotalPipe&#45;&gt;SharedModule -->
<g id="edge42" class="edge">
<title>TotalPipe&#45;&gt;SharedModule</title>
<path fill="none" stroke="black" d="M3167,-116.77C3167,-96.03 3167,-64.8 3167,-64.8 3167,-64.8 2716.36,-64.8 2716.36,-64.8"/>
<polygon fill="black" stroke="black" points="2716.36,-61.3 2706.36,-64.8 2716.36,-68.3 2716.36,-61.3"/>
</g>
<!-- TemplateContainerComponent -->
<g id="node52" class="node">
<title>TemplateContainerComponent</title>
<polygon fill="#ffffb3" stroke="black" points="6686.9,-84.8 6497.1,-84.8 6497.1,-48.8 6686.9,-48.8 6686.9,-84.8"/>
<text text-anchor="middle" x="6592" y="-62.6" font-family="Times,serif" font-size="14.00">TemplateContainerComponent</text>
</g>
<!-- TemplatesModule -->
<g id="node54" class="node">
<title>TemplatesModule</title>
<polygon fill="#8dd3c7" stroke="black" points="6442.86,-152.8 6439.86,-156.8 6418.86,-156.8 6415.86,-152.8 6325.14,-152.8 6325.14,-116.8 6442.86,-116.8 6442.86,-152.8"/>
<text text-anchor="middle" x="6384" y="-130.6" font-family="Times,serif" font-size="14.00">TemplatesModule</text>
</g>
<!-- TemplateContainerComponent&#45;&gt;TemplatesModule -->
<g id="edge48" class="edge">
<title>TemplateContainerComponent&#45;&gt;TemplatesModule</title>
<path fill="none" stroke="black" d="M6623.65,-85.07C6623.65,-103.36 6623.65,-128.8 6623.65,-128.8 6623.65,-128.8 6452.93,-128.8 6452.93,-128.8"/>
<polygon fill="black" stroke="black" points="6452.93,-125.3 6442.93,-128.8 6452.93,-132.3 6452.93,-125.3"/>
</g>
<!-- TemplateFullWidthComponent -->
<g id="node53" class="node">
<title>TemplateFullWidthComponent</title>
<polygon fill="#ffffb3" stroke="black" points="6478.75,-84.8 6287.25,-84.8 6287.25,-48.8 6478.75,-48.8 6478.75,-84.8"/>
<text text-anchor="middle" x="6383" y="-62.6" font-family="Times,serif" font-size="14.00">TemplateFullWidthComponent</text>
</g>
<!-- TemplateFullWidthComponent&#45;&gt;TemplatesModule -->
<g id="edge49" class="edge">
<title>TemplateFullWidthComponent&#45;&gt;TemplatesModule</title>
<path fill="none" stroke="black" d="M6384,-85.02C6384,-85.02 6384,-106.53 6384,-106.53"/>
<polygon fill="black" stroke="black" points="6380.5,-106.53 6384,-116.53 6387.5,-106.53 6380.5,-106.53"/>
</g>
<!-- TemplateContainerComponent  -->
<g id="node55" class="node">
<title>TemplateContainerComponent </title>
<polygon fill="#fb8072" stroke="black" points="6690.4,-220.8 6497.6,-220.8 6497.6,-184.8 6690.4,-184.8 6690.4,-220.8"/>
<text text-anchor="middle" x="6594" y="-198.6" font-family="Times,serif" font-size="14.00">TemplateContainerComponent </text>
</g>
<!-- TemplatesModule&#45;&gt;TemplateContainerComponent  -->
<g id="edge50" class="edge">
<title>TemplatesModule&#45;&gt;TemplateContainerComponent </title>
<path fill="none" stroke="black" stroke-dasharray="5,2" d="M6443.3,-140.8C6494.6,-140.8 6560.6,-140.8 6560.6,-140.8 6560.6,-140.8 6560.6,-174.53 6560.6,-174.53"/>
<polygon fill="black" stroke="black" points="6557.1,-174.53 6560.6,-184.53 6564.1,-174.53 6557.1,-174.53"/>
</g>
<!-- TemplateFullWidthComponent  -->
<g id="node56" class="node">
<title>TemplateFullWidthComponent </title>
<polygon fill="#fb8072" stroke="black" points="6479.75,-220.8 6284.25,-220.8 6284.25,-184.8 6479.75,-184.8 6479.75,-220.8"/>
<text text-anchor="middle" x="6382" y="-198.6" font-family="Times,serif" font-size="14.00">TemplateFullWidthComponent </text>
</g>
<!-- TemplatesModule&#45;&gt;TemplateFullWidthComponent  -->
<g id="edge51" class="edge">
<title>TemplatesModule&#45;&gt;TemplateFullWidthComponent </title>
<path fill="none" stroke="black" stroke-dasharray="5,2" d="M6384,-153.02C6384,-153.02 6384,-174.53 6384,-174.53"/>
<polygon fill="black" stroke="black" points="6380.5,-174.53 6384,-184.53 6387.5,-174.53 6380.5,-174.53"/>
</g>
<!-- UiComponent -->
<g id="node57" class="node">
<title>UiComponent</title>
<polygon fill="#ffffb3" stroke="black" points="6826.83,-84.8 6731.17,-84.8 6731.17,-48.8 6826.83,-48.8 6826.83,-84.8"/>
<text text-anchor="middle" x="6779" y="-62.6" font-family="Times,serif" font-size="14.00">UiComponent</text>
</g>
<!-- UiModule -->
<g id="node58" class="node">
<title>UiModule</title>
<polygon fill="#8dd3c7" stroke="black" points="6815.55,-152.8 6812.55,-156.8 6791.55,-156.8 6788.55,-152.8 6742.45,-152.8 6742.45,-116.8 6815.55,-116.8 6815.55,-152.8"/>
<text text-anchor="middle" x="6779" y="-130.6" font-family="Times,serif" font-size="14.00">UiModule</text>
</g>
<!-- UiComponent&#45;&gt;UiModule -->
<g id="edge52" class="edge">
<title>UiComponent&#45;&gt;UiModule</title>
<path fill="none" stroke="black" d="M6779,-85.02C6779,-85.02 6779,-106.53 6779,-106.53"/>
<polygon fill="black" stroke="black" points="6775.5,-106.53 6779,-116.53 6782.5,-106.53 6775.5,-106.53"/>
</g>
<!-- UiComponent  -->
<g id="node59" class="node">
<title>UiComponent </title>
<polygon fill="#fb8072" stroke="black" points="6828.33,-220.8 6729.67,-220.8 6729.67,-184.8 6828.33,-184.8 6828.33,-220.8"/>
<text text-anchor="middle" x="6779" y="-198.6" font-family="Times,serif" font-size="14.00">UiComponent </text>
</g>
<!-- UiModule&#45;&gt;UiComponent  -->
<g id="edge53" class="edge">
<title>UiModule&#45;&gt;UiComponent </title>
<path fill="none" stroke="black" stroke-dasharray="5,2" d="M6779,-153.02C6779,-153.02 6779,-174.53 6779,-174.53"/>
<polygon fill="black" stroke="black" points="6775.5,-174.53 6779,-184.53 6782.5,-174.53 6775.5,-174.53"/>
</g>
</g>
</svg>
